<?xml version="1.0"?>
<svg xmlns="http://www.w3.org/2000/svg" xmlns:xlink="http://www.w3.org/1999/xlink" xmlns:svgjs="http://svgjs.com/svgjs" version="1.1" width="512" height="512" x="0" y="0" viewBox="0 0 469.333 469.333" style="enable-background:new 0 0 512 512" xml:space="preserve" class=""><g>
<g xmlns="http://www.w3.org/2000/svg">
	<g>
		<path d="M451.125,51.286l-33.833-33.895c-23.146-23.188-64.771-23.188-87.917,0l-97.833,98.011    c-11.573,11.594-18.208,27.644-18.208,44.038s6.635,32.444,18.208,44.038l1.833,1.837l-27.583,27.633l-1.833-1.837    c-23.146-23.188-64.771-23.188-87.917,0l-97.833,98.011C6.635,340.715,0,356.765,0,373.159s6.635,32.444,18.208,44.038    l33.833,33.895C63.615,462.686,79.635,469.333,96,469.333c16.365,0,32.385-6.647,43.958-18.241l97.833-98.011    C249.365,341.488,256,325.438,256,309.043c0-16.394-6.635-32.444-18.208-44.038l-1.833-1.837l27.583-27.633l1.833,1.837    c11.573,11.594,27.594,18.241,43.958,18.241c16.365,0,32.385-6.647,43.958-18.241l97.833-98.011    c11.573-11.594,18.208-27.644,18.208-44.038S462.698,62.879,451.125,51.286z M207.625,323.125l-97.833,97.833    c-7.25,7.25-20.333,7.25-27.583,0l-33.833-33.833c-3.625-3.625-5.708-8.656-5.708-13.792s2.083-10.167,5.708-13.792l97.833-97.833    C149.833,258.083,154.865,256,160,256c5.135,0,10.167,2.083,13.792,5.708l1.833,1.833l-23.165,23.165    c-4.167,4.165-4.167,10.919,0,15.085l15.081,15.082c4.167,4.165,10.919,4.165,15.086,0l23.165-23.165l1.833,1.833    c3.625,3.625,5.708,8.656,5.708,13.792C213.333,314.469,211.25,319.5,207.625,323.125z M420.958,109.792l-97.833,97.833    c-7.25,7.25-20.333,7.25-27.583,0l-1.833-1.833l22.26-22.262c4.665-4.665,4.665-12.229,0-16.895l-13.271-13.272    c-4.665-4.665-12.23-4.665-16.896,0l-22.26,22.262l-1.833-1.833C258.083,170.167,256,165.135,256,160    c0-5.135,2.083-10.167,5.708-13.792l97.833-97.833c3.625-3.625,8.656-5.708,13.792-5.708s10.167,2.083,13.792,5.708l33.833,33.833    c3.625,3.625,5.708,8.656,5.708,13.792C426.667,101.135,424.583,106.167,420.958,109.792z" fill="#777777" data-original="#000000" style="" class=""/>
	</g>
</g>
<g xmlns="http://www.w3.org/2000/svg">
</g>
<g xmlns="http://www.w3.org/2000/svg">
</g>
<g xmlns="http://www.w3.org/2000/svg">
</g>
<g xmlns="http://www.w3.org/2000/svg">
</g>
<g xmlns="http://www.w3.org/2000/svg">
</g>
<g xmlns="http://www.w3.org/2000/svg">
</g>
<g xmlns="http://www.w3.org/2000/svg">
</g>
<g xmlns="http://www.w3.org/2000/svg">
</g>
<g xmlns="http://www.w3.org/2000/svg">
</g>
<g xmlns="http://www.w3.org/2000/svg">
</g>
<g xmlns="http://www.w3.org/2000/svg">
</g>
<g xmlns="http://www.w3.org/2000/svg">
</g>
<g xmlns="http://www.w3.org/2000/svg">
</g>
<g xmlns="http://www.w3.org/2000/svg">
</g>
<g xmlns="http://www.w3.org/2000/svg">
</g>
</g></svg>
