<svg height="512.00025pt" viewBox="0 0 512.00025 512.00025" width="512.00025pt" xmlns="http://www.w3.org/2000/svg"><path d="m42.425781 512 42.425781-42.425781 42.425782 42.425781 42.425781-42.425781-42.425781-42.425781 21.214844-21.214844 42.425781 42.425781 42.429687-42.425781-42.429687-42.425782 112.542969-112.539062c3.910156 14.84375 11.4375 28.914062 23.078124 40.558594 35.148438 35.144531 92.132813 35.144531 127.28125 0 32.917969-32.921875 34.589844-84.769532 5.851563-120.117188 9.359375-4.328125 18.25-10.050781 25.96875-17.769531 35.144531-35.148437 35.144531-92.132813 0-127.28125-35.148437-35.144531-92.132813-35.144531-127.28125 0-7.71875 7.722656-13.4375 16.609375-17.769531 25.972656-35.347656-28.742187-87.195313-27.070312-120.117188 5.847657-35.144531 35.148437-35.144531 92.132812 0 127.28125 11.644532 11.640624 25.714844 19.167968 40.558594 23.078124l-261.03125 261.035157zm358.359375-443.210938c11.71875-11.71875 30.710938-11.71875 42.429688 0 11.714844 11.714844 11.714844 30.710938 0 42.425782-11.71875 11.714844-30.710938 11.714844-42.429688 0-11.714844-11.714844-11.714844-30.710938 0-42.425782zm-31.816406 137.886719c11.714844-11.71875 30.707031-11.71875 42.425781 0 11.714844 11.714844 11.714844 30.707031 0 42.425781-11.714843 11.714844-30.710937 11.714844-42.425781 0-11.71875-11.71875-11.71875-30.710937 0-42.425781zm-106.066406-106.066406c11.714844-11.71875 30.707031-11.71875 42.425781 0 11.714844 11.714844 11.714844 30.707031 0 42.425781-11.714844 11.714844-30.710937 11.714844-42.425781 0-11.71875-11.71875-11.71875-30.710937 0-42.425781zm0 0"/></svg>